<svg xmlns="http://www.w3.org/2000/svg" viewBox="0 0 200 200" role="img" aria-label="Ember &amp; Frames">
<g transform="rotate(12 100 100) translate(6 -6)"><rect x="46" y="46" width="108" height="108" rx="2" fill="none" stroke="#FFFFFF" stroke-width="2.2"/></g><path d="M67 82 L67 55 L94 55" fill="none" stroke="#FFFFFF" stroke-width="2.2" stroke-linecap="round" stroke-linejoin="round"></path><path d="M120 55 L147 55 L147 82" fill="none" stroke="#FFFFFF" stroke-width="2.2" stroke-linecap="round" stroke-linejoin="round"></path><path d="M67 108 L67 135 L94 135" fill="none" stroke="#FFFFFF" stroke-width="2.2" stroke-linecap="round" stroke-linejoin="round"></path><path d="M120 135 L147 135 L147 108" fill="none" stroke="#FFFFFF" stroke-width="2.2" stroke-linecap="round" stroke-linejoin="round"></path><path d="M73 76 L73 61 L88 61" fill="none" stroke="#FFFFFF" stroke-width="1.4" stroke-linecap="round" stroke-linejoin="round"></path><path d="M126 61 L141 61 L141 76" fill="none" stroke="#FFFFFF" stroke-width="1.4" stroke-linecap="round" stroke-linejoin="round"></path><path d="M73 114 L73 129 L88 129" fill="none" stroke="#FFFFFF" stroke-width="1.4" stroke-linecap="round" stroke-linejoin="round"></path><path d="M126 129 L141 129 L141 114" fill="none" stroke="#FFFFFF" stroke-width="1.4" stroke-linecap="round" stroke-linejoin="round"></path><path d="M475.849365234375 0H41.8250732421875Q39.10009765625 0 39.10009765625 6.0Q39.10009765625 12 41.8250732421875 12Q74.750244140625 12 90.850341796875 17.0Q106.950439453125 22 112.36297607421875 37.0Q117.7755126953125 52 117.7755126953125 81V544Q117.7755126953125 573 112.36297607421875 587.5Q106.950439453125 602 90.850341796875 607.5Q74.750244140625 613 41.8250732421875 613Q39.10009765625 613 39.10009765625 619.0Q39.10009765625 625 41.8250732421875 625H458.1243896484375Q467.849365234375 625 467.849365234375 616L469.849365234375 486.30029296875Q469.849365234375 484.0252685546875 464.71185302734375 483.30029296875Q459.5743408203125 482.5753173828125 458.1243896484375 485.5753173828125Q446.5247802734375 542.650146484375 411.550048828125 570.7001953125Q376.5753173828125 598.750244140625 319.5257568359375 598.750244140625H278.7998046875Q254.1243896484375 598.750244140625 239.61175537109375 593.3877563476562Q225.09912109375 588.0252685546875 218.96160888671875 575.3377075195312Q212.8240966796875 562.650146484375 212.8240966796875 541.6248779296875V85Q212.8240966796875 63.5247802734375 218.23663330078125 50.249755859375Q223.649169921875 36.9747314453125 235.98687744140625 31.249755859375Q248.3245849609375 25.5247802734375 270.10009765625 25.5247802734375H319.3265380859375Q386.8756103515625 25.5247802734375 428.9251708984375 58.349853515625Q470.9747314453125 91.1749267578125 488.849365234375 155.4246826171875Q489.5743408203125 158.4246826171875 495.21185302734375 157.19970703125Q500.849365234375 155.9747314453125 500.849365234375 153.69970703125Q496.849365234375 125.5247802734375 493.98687744140625 86.849853515625Q491.1243896484375 48.1749267578125 491.1243896484375 15Q491.1243896484375 0 475.849365234375 0ZM419.849365234375 226.30029296875Q419.849365234375 268.400390625 392.149658203125 290.38775634765625Q364.449951171875 312.3751220703125 307.750244140625 312.3751220703125H167.5247802734375V337.89990234375H309.30029296875Q364.7249755859375 337.89990234375 391.78717041015625 357.0247802734375Q418.849365234375 376.149658203125 418.849365234375 411.9747314453125Q418.849365234375 414.69970703125 424.48687744140625 414.69970703125Q430.1243896484375 414.69970703125 430.1243896484375 411.9747314453125Q430.1243896484375 380.0748291015625 429.6243896484375 362.26239013671875Q429.1243896484375 344.449951171875 429.1243896484375 325Q429.1243896484375 300.8250732421875 430.48687744140625 277.51263427734375Q431.849365234375 254.2001953125 431.849365234375 226.30029296875Q431.849365234375 224.30029296875 425.849365234375 224.30029296875Q419.849365234375 224.30029296875 419.849365234375 226.30029296875Z" fill="#FFFFFF" transform="translate(79.919 105.263) scale(0.02440 -0.02440)"/><path d="M313.249755859375 -12Q250.6248779296875 -12 201.58746337890625 12.36248779296875Q152.550048828125 36.7249755859375 120.10009765625 78.2249755859375Q87.650146484375 119.7249755859375 75.78765869140625 171.7249755859375Q63.9251708984375 223.7249755859375 75.650146484375 278Q87.650146484375 333 121.06268310546875 375.0Q154.4752197265625 417 202.150146484375 441.0Q249.8250732421875 465 301.7998046875 465Q327.5247802734375 465 351.69970703125 458.81243896484375Q375.8746337890625 452.6248779296875 395.049560546875 437.69970703125L321.950439453125 369.3255615234375Q308.5753173828125 410.0252685546875 287.78765869140625 423.06268310546875Q267 436.10009765625 248.89990234375 436.10009765625Q224.0748291015625 436.10009765625 205.3746337890625 418.60009765625Q186.6744384765625 401.10009765625 174.249267578125 372.46258544921875Q161.8240966796875 343.8250732421875 155.7239990234375 310Q145.89892578125 248 158.448974609375 198.03741455078125Q170.9990234375 148.0748291015625 199.23663330078125 112.69970703125Q227.4742431640625 77.3245849609375 266.48687744140625 58.36199951171875Q305.49951171875 39.3994140625 348.8746337890625 39.3994140625Q407.349853515625 39.3994140625 456.26239013671875 71.03692626953125Q505.1749267578125 102.6744384765625 536.0374145507812 162.91204833984375Q566.89990234375 223.149658203125 570.1749267578125 309L590.5247802734375 303Q583.249755859375 199.1749267578125 545.3872680664062 128.81243896484375Q507.5247802734375 58.449951171875 447.5247802734375 23.2249755859375Q387.5247802734375 -12 313.249755859375 -12ZM122.9747314453125 192.3751220703125 110.349853515625 205Q142.7249755859375 232.8250732421875 185.2750244140625 266.46258544921875Q227.8250732421875 300.10009765625 272.10009765625 336.8250732421875Q316.3751220703125 373.550048828125 353.8751220703125 410.550048828125Q391.3751220703125 447.550048828125 414.73760986328125 482.60009765625Q438.10009765625 517.650146484375 438.10009765625 547.5753173828125Q438.10009765625 568.0252685546875 430.2001953125 578.1627807617188Q422.30029296875 588.30029296875 412.400390625 594.0753173828125Q402.50048828125 599.850341796875 394.6005859375 608.750244140625Q386.70068359375 617.650146484375 386.70068359375 635.89990234375Q386.70068359375 656.149658203125 398.91302490234375 668.3619995117188Q411.1253662109375 680.5743408203125 430.3751220703125 680.5743408203125Q458.349853515625 680.5743408203125 472.349853515625 658.0869750976562Q486.349853515625 635.599609375 486.349853515625 601.149658203125Q486.349853515625 554.7998046875 463.749755859375 511.43731689453125Q441.149658203125 468.0748291015625 403.2745361328125 426.7998046875Q365.3994140625 385.5247802734375 317.849365234375 345.88726806640625Q270.29931640625 306.249755859375 219.98687744140625 268.0748291015625Q169.6744384765625 229.89990234375 122.9747314453125 192.3751220703125ZM389.650146484375 217.3255615234375Q377.4752197265625 217.3255615234375 367.21282958984375 225.2755126953125Q356.950439453125 233.2254638671875 356.950439453125 253.850341796875Q356.950439453125 282.750244140625 376.0753173828125 309.46258544921875Q395.2001953125 336.1749267578125 425.2750244140625 353.2998046875Q455.349853515625 370.4246826171875 486.69970703125 370.4246826171875Q514.149658203125 370.4246826171875 542.8746337890625 358.9246826171875Q571.599609375 347.4246826171875 600.3245849609375 332.06219482421875Q629.049560546875 316.69970703125 655.1870727539062 305.19970703125Q681.3245849609375 293.69970703125 703.3245849609375 293.69970703125Q716.599609375 293.69970703125 724.8245849609375 298.83721923828125Q733.049560546875 303.9747314453125 733.049560546875 312.4246826171875Q733.049560546875 321.69970703125 726.0121459960938 328.4747314453125Q718.9747314453125 335.249755859375 711.7998046875 343.9747314453125Q704.6248779296875 352.69970703125 704.6248779296875 365.599609375Q704.6248779296875 378.049560546875 713.1622924804688 385.2244873046875Q721.69970703125 392.3994140625 737.049560546875 392.3994140625Q749.949462890625 392.3994140625 759.349365234375 385.08697509765625Q768.749267578125 377.7745361328125 768.749267578125 356.149658203125Q768.749267578125 329.249755859375 752.9868774414062 302.1749267578125Q737.2244873046875 275.10009765625 711.149658203125 257.11273193359375Q685.0748291015625 239.1253662109375 654.7249755859375 239.1253662109375Q628.2750244140625 239.1253662109375 599.550048828125 251.48785400390625Q570.8250732421875 263.850341796875 541.3250732421875 280.21282958984375Q511.8250732421875 296.5753173828125 483.46258544921875 308.93780517578125Q455.10009765625 321.30029296875 430.10009765625 321.30029296875Q413.650146484375 321.30029296875 405.650146484375 315.16278076171875Q397.650146484375 309.0252685546875 397.650146484375 300.30029296875Q397.650146484375 290.30029296875 403.3250732421875 281.80029296875Q409 273.30029296875 414.6749267578125 264.80029296875Q420.349853515625 256.30029296875 420.349853515625 245.850341796875Q420.349853515625 236.6754150390625 413.6749267578125 227.00048828125Q407 217.3255615234375 389.650146484375 217.3255615234375Z" fill="#FFFFFF" transform="translate(95.278 105.263) scale(0.03120 -0.03120)"/><path d="M36.750244140625 0Q34.0252685546875 0 34.0252685546875 6.0Q34.0252685546875 12 36.750244140625 12Q71.850341796875 12 89.03790283203125 17.0Q106.2254638671875 22 112.00048828125 37.0Q117.7755126953125 52 117.7755126953125 81V544Q117.7755126953125 573 112.36297607421875 587.5Q106.950439453125 602 90.850341796875 607.5Q74.750244140625 613 41.8250732421875 613Q39.10009765625 613 39.10009765625 619.0Q39.10009765625 625 41.8250732421875 625H458.1243896484375Q467.849365234375 625 467.849365234375 616L469.849365234375 486.30029296875Q469.849365234375 484.0252685546875 464.71185302734375 483.30029296875Q459.5743408203125 482.5753173828125 458.1243896484375 485.5753173828125Q446.5247802734375 542.650146484375 411.550048828125 570.7001953125Q376.5753173828125 598.750244140625 319.5257568359375 598.750244140625H278.7998046875Q242.19921875 598.750244140625 227.51165771484375 586.0252685546875Q212.8240966796875 573.30029296875 212.8240966796875 543V85Q212.8240966796875 55 220.96160888671875 39.5Q229.09912109375 24 253.19921875 18.0Q277.29931640625 12 324.7745361328125 12Q327.049560546875 12 327.049560546875 6.0Q327.049560546875 0 324.7745361328125 0Q291.3245849609375 0 252.3746337890625 1.0Q213.4246826171875 2 162.89990234375 2Q128 2 95.10009765625 1.0Q62.2001953125 0 36.750244140625 0ZM407.849365234375 215.0252685546875Q407.849365234375 256.400390625 379.46209716796875 278.38775634765625Q351.0748291015625 300.3751220703125 293.1749267578125 300.3751220703125H167.5247802734375V325.89990234375H295Q352.0748291015625 325.89990234375 379.46209716796875 345.5247802734375Q406.849365234375 365.149658203125 406.849365234375 400.69970703125Q406.849365234375 402.69970703125 412.849365234375 402.69970703125Q418.849365234375 402.69970703125 418.849365234375 400.69970703125Q418.849365234375 368.0748291015625 418.349365234375 350.26239013671875Q417.849365234375 332.449951171875 417.849365234375 313Q417.849365234375 288.8250732421875 418.849365234375 265.51263427734375Q419.849365234375 242.2001953125 419.849365234375 215.0252685546875Q419.849365234375 212.30029296875 413.849365234375 212.30029296875Q407.849365234375 212.30029296875 407.849365234375 215.0252685546875Z" fill="#FFFFFF" transform="translate(120.997 105.263) scale(0.02440 -0.02440)"/>
</svg>
